<?xml version="1.0" encoding="UTF-8"?>
<svg id="Layer_2" data-name="Layer 2" xmlns="http://www.w3.org/2000/svg" viewBox="0 0 264.94 162.99">
  <defs>
    <style>
      .cls-1 {
        fill: #fff;
        stroke-width: 0px;
      }
    </style>
  </defs>
  <g id="Layer_1-2" data-name="Layer 1">
    <g>
      <path class="cls-1" d="m1.04,47.5c.44-1.32.98-2.62,1.52-3.9,3.4-8.1,6.8-16.21,10.19-24.31,1.9-4.53,4.13-16.26,9.39-18.1,1.9-.66,4.44.33,4.76,2.31.49,3.07-4.18,6-2.38,8.54C30.8,6.09,38.2-.27,46.82.41c7.1.56,12.99,5.96,16.61,12.09,7.53,12.75,7.25,29.21,1.23,42.74s-17.22,24.28-29.95,31.85c-6.38,3.8-14.26,6.91-21.04,3.9-6.53-2.9-9.63-10.59-10.03-17.72s1.24-14.24,1.18-21.39c-1.16,1.46-2.85,2.49-4.68,2.85-.36-2.44.13-4.86.92-7.22ZM41.43,14.08c-2.64-.12-5.35.36-7.8,1.34-19.52,7.89-18.98,35.18-17.81,52.79.26,3.98.91,8.32,3.87,10.98,2.5,2.25,6.21,2.77,9.49,2.02s6.19-2.61,8.85-4.68c15.03-11.68,23.64-32.57,17.5-50.59-1.08-3.17-2.63-6.27-5.15-8.48-2.47-2.17-5.66-3.25-8.96-3.4Z"/>
      <path class="cls-1" d="m111.32,82.64c-7.14,2.87-14.38,5.69-21.78,6.51-7.51.84-15.31-.59-20.89-5.61-8.27-7.45-9.91-21.52-6.46-33.57C69.71,23.74,98.36-3.85,123.44.44c4.81.82,9.88,3.51,10.9,8.78.56,2.87-.22,5.98-1.13,8.88-3.89,12.38-10.53,23.93-19.13,33.26-1.42,1.54-2.98,3.08-4.85,3.64s-4.1-.22-4.62-2.19c-.28-1.09,0-2.31.31-3.45,2.09-7.51,6.1-14.53,11.4-19.98,3.54-3.63,8.13-7.79,7.45-12.78-.56-4.16-4.7-6.21-8.5-6.54-7.65-.67-15.6,3.11-21.8,8.87-6.2,5.76-10.84,13.35-14.63,21.21-2.82,5.83-5.25,12-5.96,18.39s.5,13.08,4.28,17.53c3.91,4.6,10.08,6.26,16.04,5.82s11.82-2.72,17.56-5.08c.29,1.9.58,3.8.86,5.7-.1.04-.21.08-.31.13Z"/>
      <path class="cls-1" d="m167.09,73.5c.05,0,.1-.02.15-.03-11.01,6.31-23.4,10.23-36.04,11.39-4.02.37-8.44.36-11.65-2.09,4.42-4.67,11.2-5.98,17.17-8.35,7.41-2.94,14.03-7.85,18.99-14.09,3.68-4.63,6.54-10.34,6.01-16.24-.83-9.11-9.12-15.46-16.77-20.48-11.08,24.65-23.49,48.69-37.17,72-.17-6.81,2.18-13.4,4.64-19.75,6.67-17.21,14.36-34.01,22.33-50.66,1.16-2.43,2.36-5.01,2.13-7.7-.37-4.31-4.34-7.49-8.42-8.89s-8.51-1.56-12.64-2.81c-2.39-.72-5.35-2.27-2.58-4.14,1.51-1.02,6.4-.19,8.18-.07,5.46.35,10.86,1.51,16.01,3.36,10.09,3.64,19.23,10.03,25.84,18.5,3.99,5.11,7.17,11.14,7.5,17.62.34,6.78-2.5,13.42-6.6,18.83s-9.41,9.77-14.71,14.02c5.86.71,11.82.57,17.63-.43Z"/>
      <path class="cls-1" d="m172.14,118.34c-.1.37-.16.76-.14,1.17.05,2.09,1.77,3.71,3.37,5.06,9.68,8.19,19.74,15.92,30.14,23.18,2.6,1.81,5.28,3.66,7.05,6.28s2.45,6.25.8,8.95c-16.79-8.01-32.89-17.46-48.05-28.23-2.21,7.26-4.43,14.52-6.64,21.78-2.25,0-4.11-1.95-4.77-4.09s-.41-4.45-.17-6.68c1.56-14.68,1.97-29.48,1.25-44.23-.5-10.16-3.38-30.45,9.31-34.7,2.88-.96,5.99-.97,9.02-.73,13.93,1.09,27.4,7.33,37.25,17.24.82.83,1.64,1.72,1.97,2.83.71,2.4-1.05,4.78-2.77,6.59-8.63,9.1-19.34,16.2-31.08,20.6-2.65.99-5.82,2.47-6.53,4.99Zm-8.22-34.08c.22.5.45,1.01.68,1.55,3.16,7.54,4.32,15.91,3.33,24.03,11.42-3.22,21.92-9.61,30.03-18.27.97-1.03,1.96-2.27,1.86-3.68-.09-1.26-1.03-2.27-1.96-3.13-6.56-6.03-15.38-9.53-24.28-9.66-2.87-.04-6.43.25-8.83,2.01-2.91,2.14-2.05,4.4-.83,7.15Z"/>
      <path class="cls-1" d="m252.5,144.55c-2.32.48-4.67.85-7.03,1.07,9.85-10.87,20.34-23.46,19.42-38.1-.66-10.49-7.41-19.89-16-25.94-2.07-1.46-9.59-7.62-29.14-11.46-24.18-4.75-46.23-2.19-46.32-.2-.07,1.67,15.48,1.87,40.56,10.71,3.87,1.36,7.11,2.63,9.52,3.61-2.23,3.23-4.44,6.57-6.63,10.03-11,17.43-19.24,34.59-25.46,50.65,3.17-3.32,6.46-6.99,9.79-11.01,10.49,21.41,16.57,31.13,31.01,25.94,7.66-2.76,26.39-9.96,28.2-17.93m-8,3c.03-.13.05-.25.07-.37m-21.26,3.98c-7.84,1.93-16.37-2.06-22.89-7.16-1.86-1.45-3.69-3.06-4.72-5.18-3.05-6.27,5.6-13.15,9.09-17.5,5.44-6.78,10.88-13.56,16.32-20.34,1.76-2.19,3.56-4.46,4.39-7.14s.48-5.93-1.59-7.83c4.88,1.9,9.8,3.81,14.14,6.73s8.11,6.97,9.73,11.94c1.88,5.79.68,12.13-1.34,17.87-2.48,7.06-6.15,13.69-10.83,19.53-2.78,3.48-6.05,6.76-10.19,8.4-.7.28-1.41.5-2.13.68Z"/>
    </g>
  </g>
</svg>