<?xml version="1.0" encoding="UTF-8"?>
<svg id="Layer_2" data-name="Layer 2" xmlns="http://www.w3.org/2000/svg" viewBox="0 0 40.25 40.25">
  <defs>
    <style>
      .cls-1 {
        fill: #7b3b11;
        stroke: #fff;
        stroke-miterlimit: 10;
        stroke-width: .25px;
      }
    </style>
  </defs>
  <g id="Layer_1-2" data-name="Layer 1">
    <g>
      <path class="cls-1" d="m17.5,17.24c-.11.77-.21,1.55-.33,2.32-.14.87-.26.97-.87.82.09-.58.17-1.15.25-1.67-.1.03-.21.13-.25.08-.39-.47-.84-.89-.71-1.84.02-.16-.08-.42-.18-.53-.64-.72-1.29-1.43-1.96-2.09-.82-.8-1.67-1.56-2.52-2.3-.31-.27-.66-.42-.98-.64-.22-.15-.44-.34-.66-.52-.71,1.56-1.85,2.36-2.9,3.34-.8.75-1.67,1.32-2.49,2.04-.43.38-.73.2-1.06-.3.3-.46.59-.94.91-1.36,1.36-1.79,2.74-3.56,4.11-5.33.1-.13.21-.27.33-.31.57-.19,1.04-.68,1.51-1.17.13-.14.25-.32.37-.49.06-.09.1-.26.16-.28.46-.16.56-.83.84-1.26.45-.71.94-1.4,1.45-2,.99-1.16,2.01-2.26,3.02-3.39.27-.31.54-.32.87.03-.09.16-.15.32-.24.44-1.4,1.75-2.81,3.49-4.22,5.23-.09.11-.2.21-.28.34-.38.59-.69,1.08-.44,2.13.42,1.73.34,1.78,1.37,2.7.74.66,1.48,1.31,2.24,1.94.29.24.49.49.42,1.04-.01.11.03.24.08.35,0-.05-.02-.09-.02-.14-.08-.86-.06-.83.46-1.17,1.81-1.19,3.71-1.24,5.62-1.09,1.15.09,2.25.57,3.31,1.29.14.1.2.47.28.75-.12-.51.09-.75.36-.98,1.02-.87,2.03-1.76,3.04-2.67.15-.14.26-.43.33-.69.16-.68.3-1.38.43-2.07.02-.12-.02-.3-.06-.42-.33-.86-.89-1.34-1.38-1.94-1.24-1.53-2.47-3.09-3.7-4.65-.07-.09-.11-.21-.18-.34.27-.31.52-.39.78-.1,1.4,1.6,2.81,3.19,4.2,4.81.19.21.33.52.46.83.19.45.47.74.7,1.09.32.52.73.79,1.06,1.24.13.17.3.29.45.42.44.35.94.59,1.31,1.07,1.52,1.98,3.01,4.02,4.51,6.05.03.04.05.11.08.17-.46.65-.53.67-1.04.3-1.66-1.21-3.26-2.59-4.73-4.28-.28-.33-.49-.81-.71-1.18-.11.14-.25.46-.42.52-1,.33-1.78,1.31-2.62,2.08-1.04.96-2.03,2.02-3.04,3.06-.09.09-.17.32-.17.48-.04,1.05-.2,1.45-.85,1.99-.02-.12-.04-.23-.06-.34-.02,0-.03.01-.05.02.09.59.17,1.19.26,1.78-.61.18-.69.1-.91-.94-.04.79.11,1.08.6,1.15,1.19.16,1.22.16,1.5,2.12.11.75.14,1.56.09,2.32-.11,1.53-1.26,2.19-2.03,1.2-.22-.28-.41-.67-.53-1.07-.26-.9-.67-1.38-1.32-1.38-.82,0-1.65-.02-2.47,0-.62.02-1.04.47-1.28,1.38-.35,1.31-1.25,1.88-1.94,1.27-.47-.4-.72-1.07-.67-1.86.07-1.04.22-2.07.36-3.09.07-.51.31-.75.64-.8.05,0,.09-.03.14-.03,1.22-.1,1.01-.21,1.22-1.7.08-.56.13-1.14.2-1.7-.02,0-.03-.01-.05-.02Zm-1.71,6.45c-.3.09-.43.41-.47.84-.04.55.07,1,.38,1.32.33.35.7.38,1.05.13.51-.36.59-1.38.18-1.85-.26-.54-.61-.67-1.14-.44Zm8.32-.2c-.6,0-1.06.63-1.05,1.43,0,.72.36,1.22.87,1.22.55,0,1.04-.66,1.04-1.41,0-.7-.37-1.24-.86-1.24Z"/>
      <path class="cls-1" d="m36.98,26.61c-.11-.52-.2-.97-.31-1.41-.18-.74-.18-1.47.05-2.17.68-1.99,1.42-3.91,2.36-5.64.2-.36.78-.4.98-.04.05.1.07.28.06.4-.09.82-.17,1.65-.29,2.46-.15.92-.35,1.81-.51,2.72-.24,1.36-.69,2.55-1.23,3.66-.18.36-.21.66.03,1.04.35.58.46,1.25.15,1.98-.18.42-.28.86-.05,1.36.05.1-.09.49-.2.63-.18.23-.23.47-.29.81-.15.89-.28,1.82-.58,2.6-.61,1.62-1.33,3.14-2,4.71-.14.34-.3.48-.57.34-.49-.27-.71-.55-.64-1.04.13-1.01.28-2.03.49-3.01.43-2,.91-3.97,1.37-5.96.03-.12.05-.23.01-.4-.06.17-.15.33-.18.52-.09.52-.29.54-.59.41-3-1.26-6-2.5-9-3.74-.11-.05-.23-.12-.34-.15-.38-.09-.52.19-.5.75.04,1.05.05,2.1.02,3.14-.02.69-.43,1.25-.93,1.29-.92.08-.77.38-.77-1,0-1.22,0-2.43.01-3.65,0-.12.02-.24.04-.41.59.1,1.13.04,1.54-.71.4-.73.28-1.61.3-2.53.31.14.6.25.87.38,2.73,1.28,5.47,2.56,8.2,3.84.19.09.39.17.59.23.36.11.65,0,.82-.59.12-.45.38-.68.7-.74.1-.02.21-.05.4-.1Z"/>
      <path class="cls-1" d="m14.89,23.58c.05.9-.09,1.8.32,2.52.4.72.93.82,1.53.71v5.14c-.31-.05-.6-.05-.89-.14-.42-.14-.73-.56-.75-1.23-.04-1.21-.01-2.42-.01-3.79-.18-.01-.44-.12-.67-.02-2.81,1.16-5.61,2.34-8.41,3.52-.25.11-.52.16-.76.28-.28.14-.48.09-.57-.4-.03-.16-.11-.31-.22-.42.04.18.08.37.13.54.75,2.58,1.23,5.3,1.71,8.02.2,1.11.12,1.27-.58,1.71-.24.15-.38.07-.51-.23-.72-1.69-1.49-3.33-2.15-5.08-.28-.73-.32-1.65-.49-2.48-.04-.22-.14-.43-.25-.59-.2-.28-.35-.52-.15-.97.07-.15.03-.43,0-.65-.01-.14-.06-.28-.12-.4-.36-.77-.21-1.47.17-2.06.22-.35.19-.61.02-.93-.58-1.13-1.03-2.36-1.27-3.75-.27-1.62-.55-3.23-.81-4.85-.04-.27-.14-.6.14-.79.43-.28.71-.29.89.13.79,1.83,1.59,3.67,2.34,5.54.28.71.27,1.52.07,2.32-.11.42-.18.85-.28,1.33.19.06.32.07.43.16.22.19.47.37.61.67.33.68.5.83,1.05.58,1.33-.62,2.66-1.26,4-1.88,1.65-.77,3.31-1.53,4.96-2.29.15-.07.3-.12.5-.2Z"/>
      <path class="cls-1" d="m23.33,31.46c-.09-.22-.17-.39-.24-.55-.27.31-.53.61-.78.93-.27.35-.57.48-.93.44-.12-.01-.27.12-.36.25-.58.82-1.19.81-1.77-.03-.08-.12-.2-.25-.3-.23-.8.12-1.25-.69-1.75-1.44-.06.16-.13.34-.2.52-.03,0-.05,0-.08,0-.01-.27-.03-.54-.03-.82,0-1.13-.02-2.25,0-3.38,0-.25.13-.51.23-.74.21-.47.49-.89.65-1.39.25-.76.67-1.05,1.16-1.07.87-.04,1.74.01,2.61.05.45.02.76.41.95.99.2.61.42,1.18.81,1.55.07.06.12.24.12.37,0,1.47,0,2.94-.01,4.41,0,.03-.03.05-.07.14Zm-3.21.42h0c.21,0,.43,0,.64,0,.66-.01.96-.31,1.07-1.31.11-1.01.12-2.05.14-3.08.02-.97-.74-2.41-1.36-2.66-.82-.34-1.95.56-2.23,1.77,0,.03-.01.07-.01.11-.03,1.51-.21,3.04.25,4.5.14.43.31.66.62.67.3,0,.6,0,.89,0Z"/>
      <path class="cls-1" d="m15.8,23.7c.53-.24.88-.1,1.14.44.24.69.18,1.18-.18,1.49-.39.33-.92.14-1.18-.42-.23-.49-.16-.97.22-1.51Z"/>
      <path class="cls-1" d="m24.12,23.5c.49,0,.87.54.86,1.24,0,.75-.5,1.42-1.04,1.41-.51,0-.86-.51-.87-1.22,0-.8.45-1.43,1.05-1.43Zm-.06.11c-.41,0-.86.6-.86,1.16,0,.55.37,1.04.78,1.03.43,0,.88-.61.89-1.19,0-.51-.4-1.01-.8-1.01Z"/>
      <path class="cls-1" d="m15.8,23.7c-.38.53-.45,1.02-.22,1.51.26.56.79.75,1.18.42.37-.31.43-.8.18-1.49.42.47.33,1.49-.18,1.85-.35.25-.72.22-1.05-.13-.31-.32-.42-.77-.38-1.32.03-.43.16-.75.47-.84Z"/>
      <path class="cls-1" d="m20.12,31.87c-.3,0-.6,0-.89,0-.31,0-.49-.23-.62-.67-.46-1.46-.27-2.99-.25-4.5,0-.04,0-.07.01-.11.28-1.22,1.41-2.11,2.23-1.77.62.26,1.38,1.69,1.36,2.66-.02,1.03-.03,2.07-.14,3.08-.11,1-.41,1.29-1.07,1.31-.21,0-.43,0-.64,0h0Zm1.72-2.38c0-.56-.03-1.12,0-1.67.09-1.29-.43-2.03-1.05-2.62-.24-.23-.6-.29-.88-.23-.84.18-1.5,1.41-1.5,2.68,0,.54,0,1.09,0,1.64,0,.07.03.14.07.32.13-.75.44-.89.81-.88.56,0,1.12,0,1.68,0,.38,0,.69.13.85.78Zm-1.74,2.07s0,.03,0,.04c.15,0,.31,0,.46,0,.99-.02,1.16-.3,1.08-1.82,0-.02,0-.04,0-.05-.03-.53-.2-.84-.57-.85-.57-.02-1.14-.06-1.71-.04-.52.02-.64.21-.7.99-.02.34,0,.68.01,1.02.02.45.19.69.49.71.31.01.62,0,.93,0Z"/>
      <path class="cls-1" d="m24.06,23.61c.4,0,.8.5.8,1.01,0,.58-.45,1.18-.89,1.19-.41,0-.78-.49-.78-1.03,0-.56.45-1.16.86-1.16Z"/>
      <path class="cls-1" d="m21.84,29.5c-.16-.65-.47-.79-.85-.78-.56,0-1.12.01-1.68,0-.38,0-.69.14-.81.88-.04-.18-.07-.25-.07-.32,0-.54,0-1.09,0-1.64,0-1.27.67-2.5,1.5-2.68.29-.06.65,0,.88.23.62.59,1.14,1.33,1.05,2.62-.04.55,0,1.12,0,1.67Z"/>
      <path class="cls-1" d="m20.1,31.57c-.31,0-.62.01-.93,0-.29-.01-.46-.26-.49-.71-.02-.34-.04-.69-.01-1.02.05-.79.18-.98.7-.99.57-.02,1.14.02,1.71.04.36.01.53.33.57.85,0,.02,0,.04,0,.05.08,1.52-.09,1.8-1.08,1.82-.15,0-.31,0-.46,0,0-.01,0-.03,0-.04Zm-.2-2.28s-.07-.08-.11-.12c-.09.17-.22.32-.25.51-.04.31-.02.65-.02.97,0,.32.11.51.33.53.32.02.64.05.96.04.22,0,.46-.02.56-.44.12-.5.04-1.19-.22-1.55.12.52.09.93-.2,1.19-.28.25-.57.26-.84-.02-.26-.27-.32-.65-.22-1.1Z"/>
      <path class="cls-1" d="m19.89,29.28c-.11.45-.04.84.22,1.1.27.28.56.28.84.02.29-.26.32-.67.2-1.19.26.36.33,1.05.22,1.55-.1.42-.34.43-.56.44-.32.01-.64-.02-.96-.04-.21-.01-.32-.21-.33-.53,0-.33-.03-.66.02-.97.03-.19.16-.34.25-.51.04.04.07.08.11.12Z"/>
      <circle class="cls-1" cx="20.55" cy="29.74" r=".91"/>
    </g>
  </g>
</svg>