<?xml version="1.0" encoding="UTF-8"?>
<svg id="Layer_2" data-name="Layer 2" xmlns="http://www.w3.org/2000/svg" viewBox="0 0 40 40">
  <defs>
    <style>
      .cls-1 {
        fill: #fff;
      }

      .cls-1, .cls-2 {
        stroke-width: 0px;
      }

      .cls-2 {
        fill: #7b3b11;
      }
    </style>
  </defs>
  <g id="Layer_1-2" data-name="Layer 1">
    <path class="cls-1" d="m39.68,24.93c-.1-.19-.1-.44.02-.61-.01-.04-.02-.09-.02-.13-.5-.07-.56-.78-.17-1,0-.01,0-.02,0-.03-.27-.11-.48-.43-.32-.78.36-.79.42-1.68.43-2.55-.17-2.99-.24-6.01-.27-9-.02-2.55.39-5.25-.05-7.8-.23-.03-.43-.2-.44-.51,0-.84-.14-1.66-.3-2.48-.01,0-.02-.02-.03-.02h-13.42c0,2.38,0,4.75.05,7.13.01.54.14,1.12.37,1.6,1.13,2.37,2.31,4.72,3.52,7.18-.38.2-.71.38-1.15.61-.35-.71-.69-1.37-1.02-2.04-.47-.94-.87-1.93-1.42-2.82-1.41-2.23-1.96-4.63-1.67-7.24.03-.28-.03-.58-.04-.93h-2.57c0,1.09-.04,2.14.01,3.18.06,1.09-.18,2.05-.7,3.01-.97,1.79-1.79,3.67-2.74,5.48-.46.88-.64,1.75-.63,2.74.03,6.44.01,12.87.01,19.31v1.27h3.96c.04.36.07.66.11.97.08-.07.18-.11.31-.11.02,0,.03,0,.05.01.07-.05.16-.09.28-.09.13,0,.23.05.3.12.06-.02.12-.04.19-.04.11,0,.2.04.27.09-.04-.32-.09-.63-.09-.95-.01-4.03-.02-8.05.01-12.08,0-.56.2-1.15.44-1.67.32-.72.71-1.42,1.15-2.07.81-1.18,1.24-2.44,1.06-3.89-.11-.85.3-1.17,1.14-1.17,3.23.03,6.47.01,9.71,0,.56,0,1.21.07,1.09.78-.44,2.77,1.47,4.59,2.61,7.03,0-.06.01-.11.02-.16-.04-.1-.06-.21-.05-.31Z"/>
    <path class="cls-1" d="m19.8,0H0v15.64h3.14c0-1.02-.01-1.87,0-2.72.06-3.93,3.69-6.39,7.35-5.05.4.15.95.13,1.36-.02,2.02-.71,4.06-.33,5.65,1.2-.32.25-.63.51-.99.8-1.15-.92-2.49-1.33-4.23-.72,1.7,1.68,1.53,3.74,1.53,5.78,0,.2.12.41.21.6.18.38.38.75.69,1.35h-4.89v2.63h-1.32v-2.53h-1.98c-.02.33-.06.65-.06.97,0,6.47.02,12.93-.02,19.4,0,.92.26,1.19,1.15,1.16,1.86-.06,3.72.01,5.59-.03.88-.02,1.53.05,1.27,1.27h.05c.03-.22.18-.41.47-.41.13,0,.22.05.29.11,0,0,0,0,0,0,0-.06-.02-.12-.02-.18,0-.06.1-.06.1,0,0,.06.01.11.02.16,0,0,0,0,.01,0,.25,0,.4.15.46.33h.09c-.04-.47-.11-.97-.11-1.47,0-7.06-.02-14.12.01-21.18,0-.63.17-1.31.43-1.88,1.01-2.14,2.11-4.24,3.13-6.38.24-.51.4-1.12.41-1.69.04-2.37,0-4.75,0-7.13Z"/>
    <path class="cls-2" d="m11.85,7.86c-.41.14-.96.17-1.36.02-3.66-1.35-7.29,1.12-7.35,5.05-.01.85,0,1.69,0,2.72H0v24.36h14.51c-.03-.09-.03-.18-.02-.27h-.05c.26-1.21-.39-1.29-1.27-1.27-1.86.05-3.73-.03-5.59.03-.89.03-1.16-.23-1.15-1.16.04-6.47.02-12.93.02-19.4,0-.32.04-.64.06-.97h1.98v2.53h1.32v-2.63h4.89c-.31-.6-.51-.97-.69-1.35-.09-.19-.22-.4-.21-.6,0-2.04.17-4.1-1.53-5.78,1.74-.61,3.08-.2,4.23.72.36-.29.68-.54.99-.8-1.59-1.53-3.63-1.91-5.65-1.2Zm-7.32,9.09c-.47.73-.88,1.35-1.39,2.13-.51-.78-.91-1.39-1.38-2.13h2.77Zm-2.72,21.46c.43-.7.82-1.31,1.32-2.12.49.74.9,1.36,1.41,2.12H1.8Zm3.23-1.68c-.5-.75-.84-1.3-1.22-1.83-.43-.6-.9-.61-1.34,0-.38.53-.73,1.08-1.25,1.85v-18.12c.48.7.85,1.26,1.24,1.81.5.69.85.69,1.36,0,.38-.53.73-1.08,1.21-1.81v18.1Zm3.43-21.25h-3.91c0-1.17-.15-2.34.03-3.45.44-2.69,3.53-3.84,5.32-2.84-1.72,1.76-1.42,4.02-1.44,6.28Zm3.9-3.35c.13.36.1.78.1,1.17q.02,2.53-2.62,2.17c-.03-1.92-.42-3.91,1.46-5.77.41.92.79,1.66,1.07,2.43Z"/>
    <path class="cls-2" d="m25.51,8.73c-.23-.48-.36-1.06-.37-1.6-.05-2.38-.04-4.75-.05-7.13h-5.29c0,2.38.04,4.75,0,7.13,0,.57-.16,1.18-.41,1.69-1.02,2.14-2.12,4.24-3.13,6.38-.27.57-.43,1.25-.43,1.88-.03,7.06-.02,14.12-.01,21.18,0,.5.07.99.11,1.47h-.09c.03.09.03.18.01.27h5.19c-.07-.2-.01-.43.15-.57-.03-.31-.07-.61-.11-.97h-3.96v-1.27c0-6.44.01-12.87-.01-19.31,0-.99.17-1.86.63-2.74.95-1.81,1.77-3.68,2.74-5.48.52-.97.75-1.93.7-3.01-.05-1.04-.01-2.09-.01-3.18h2.57c.02.35.08.64.04.93-.29,2.62.26,5.02,1.67,7.24.56.89.95,1.88,1.42,2.82.33.67.67,1.33,1.02,2.04.44-.23.77-.41,1.15-.61-1.21-2.46-2.39-4.8-3.52-7.18Zm-1.79-6.66h-2.49V.82h2.49v1.25Z"/>
    <path class="cls-2" d="m39.72,25.24s-.01.1-.02.16c-1.14-2.44-3.04-4.26-2.61-7.03.11-.71-.53-.78-1.09-.78-3.24,0-6.47.02-9.71,0-.84,0-1.25.32-1.14,1.17.19,1.45-.24,2.71-1.06,3.89-.44.65-.83,1.35-1.15,2.07-.23.52-.43,1.11-.44,1.67-.04,4.03-.02,8.05-.01,12.08,0,.32.04.63.09.95.19.13.26.39.18.6h17.23v-14.5c-.13-.05-.22-.14-.28-.26Zm-3.26-2.91c.51.9.95,1.67,1.47,2.57h-2.94c.52-.9.95-1.66,1.47-2.57Zm-9.94-3.33c.3-.02.61-.05.92-.05,2.44,0,4.89.04,7.33-.02.98-.03,1.2.33.96,1.25h-9.21v-1.18Zm5.9,19.48c-2.71-.03-5.42-.01-8.13-.02-.12,0-.25-.05-.44-.09v-11.98h9.21c.02.28.07.56.07.84,0,3.43,0,6.86,0,10.29,0,.52.04.98-.72.97Zm.64-13.5c-2.86.02-5.72.01-8.78.01.65-1.14,1.2-2.14,1.78-3.11.08-.13.32-.24.49-.25,2.83-.01,5.66-.01,8.77-.01-.67,1.18-1.21,2.15-1.78,3.1-.08.14-.32.26-.48.26Zm4.51,13.51c-.97-.06-1.95-.01-3.01-.01v-12.1h3.83c.03.29.08.57.08.85,0,3.43-.01,6.86.02,10.29,0,.71-.16,1.02-.92.98Z"/>
    <path class="cls-1" d="m23.86,38.37v-11.98h9.21c.02.28.07.56.07.84,0,3.43,0,6.86,0,10.29,0,.52.04.98-.72.97-2.71-.03-5.42-.01-8.13-.02-.12,0-.25-.05-.44-.09Z"/>
    <path class="cls-1" d="m5.03,36.73c-.5-.75-.84-1.3-1.22-1.83-.43-.6-.9-.61-1.34,0-.38.53-.73,1.08-1.25,1.85v-18.12c.48.7.85,1.26,1.24,1.81.5.69.85.69,1.36,0,.38-.53.73-1.08,1.21-1.81v18.1Z"/>
    <path class="cls-1" d="m34.57,26.38h3.83c.03.29.08.57.08.85,0,3.43-.01,6.86.02,10.29,0,.71-.16,1.02-.92.98-.97-.06-1.95-.01-3.01-.01v-12.1Z"/>
    <path class="cls-1" d="m35.32,21.63c-.67,1.18-1.21,2.15-1.78,3.1-.08.14-.32.26-.48.26-2.86.02-5.72.01-8.78.01.65-1.14,1.2-2.14,1.78-3.11.08-.13.32-.24.49-.25,2.83-.01,5.66-.01,8.77-.01Z"/>
    <path class="cls-1" d="m4.56,15.48c0-1.17-.15-2.34.03-3.45.44-2.69,3.53-3.84,5.32-2.84-1.72,1.76-1.42,4.02-1.44,6.28h-3.91Z"/>
    <path class="cls-1" d="m11.3,9.7c.41.92.79,1.66,1.07,2.43.13.36.1.78.1,1.17q.02,2.53-2.62,2.17c-.03-1.92-.42-3.91,1.46-5.77Z"/>
    <path class="cls-1" d="m35.74,20.19h-9.21v-1.18c.3-.02.61-.05.92-.05,2.44,0,4.89.04,7.33-.02.98-.03,1.2.33.96,1.25Z"/>
    <path class="cls-1" d="m34.99,24.9c.52-.9.95-1.66,1.47-2.57.51.9.95,1.67,1.47,2.57h-2.94Z"/>
    <path class="cls-1" d="m23.72,2.07h-2.49V.82h2.49v1.25Z"/>
    <path class="cls-1" d="m3.14,19.07c-.51-.78-.91-1.39-1.38-2.13h2.77c-.47.73-.88,1.35-1.39,2.13Z"/>
    <path class="cls-1" d="m4.53,38.41H1.8c.43-.7.82-1.31,1.32-2.12.49.74.9,1.36,1.41,2.12Z"/>
  </g>
</svg>